<svg width="1500" height="1000" xmlns="http://www.w3.org/2000/svg"><path fill="#fcfcfc" d="M0 0h1500v1000H0z"/><rect x="632" y="475" width="9" height="25" fill="#FF2E63" rx="0" transform="matrix(-.9896 .03498 -.24533 -1.00183 1460.75 998.133)"/><rect x="1415" y="890" width="5" height="14" fill="#FF2E63" rx="0" transform="matrix(.9478 .4073 -.32642 .9148 400.708 -426.627)"/><rect x="301" y="369" width="6" height="17" fill="#EAEAEA" rx="0" transform="matrix(.84763 .75655 -.58495 .65766 382.887 -122.017)"/><rect x="1350" y="331" width="5" height="9" fill="#252A34" rx="0" transform="matrix(.49672 1.03046 -.96177 .01799 1158.672 -727.011)"/><rect x="1404" y="60" width="5" height="11" fill="#08D9D6" rx="0" transform="matrix(.61198 .94505 -.75967 .46093 549.8 -836.901)"/><rect x="1161" y="541" width="9" height="18" fill="#08D9D6" rx="0" transform="matrix(-.52994 .8573 -.84804 -.51512 2229.646 -145.523)"/><rect x="392" y="235" width="7" height="12" fill="#252A34" rx="0" transform="matrix(.90781 .5189 -.41628 .8636 181.213 -220.917)"/><rect x="301" y="767" width="6" height="9" fill="#252A34" rx="0" transform="matrix(.00053 .9901 -1.00991 .15682 1017.35 328.268)"/><rect x="672" y="685" width="6" height="8" fill="#EAEAEA" rx="0" transform="matrix(-.72439 .88552 -.72774 -.49085 1593.905 322.56)"/><rect x="133" y="629" width="8" height="15" fill="#08D9D6" rx="0" transform="matrix(-.90763 .09164 -.53794 -1.04746 699.455 1335.168)"/><rect x="562" y="509" width="5" height="13" fill="#FF2E63" rx="0" transform="matrix(.21259 .9926 -1.05653 -.22916 1145.022 183.034)"/><rect x="622" y="355" width="6" height="13" fill="#EAEAEA" rx="0" transform="matrix(.9945 .0524 -.1051 1 0 0)"/><rect x="1340" y="963" width="9" height="19" fill="#EAEAEA" rx="0" transform="matrix(-.96544 .14178 -.18379 -1.0088 2647.87 2024.284)"/><rect x="1219" y="206" width="5" height="9" fill="#252A34" rx="0" transform="matrix(.99867 .29349 -.14078 .95996 53.452 -243.2)"/><rect x="645" y="238" width="6" height="9" fill="#EAEAEA" rx="0" transform="matrix(-.29075 .99708 -.95166 -.17581 1072.067 -463.609)"/><rect x="1106" y="313" width="5" height="9" fill="#252A34" rx="0" transform="matrix(-1.00425 .24196 -.10512 -.97044 2201.732 376.753)"/><rect x="543" y="688" width="8" height="21" fill="#08D9D6" rx="0" transform="matrix(.92423 .63086 -.44382 .77904 553.316 -228.99)"/><rect x="239" y="972" width="8" height="21" fill="#EAEAEA" rx="0" transform="matrix(-.25289 .84805 -1.0021 -.59381 1399.128 1424.954)"/><rect x="1356" y="118" width="8" height="19" fill="#EAEAEA" rx="0" transform="matrix(-.89392 .18365 -.37534 -1.04155 2560.97 478.814)"/><rect x="131" y="819" width="5" height="12" fill="#EAEAEA" rx="0" transform="matrix(-.92846 .42262 -.37512 -.9063 523.687 1516.284)"/><rect x="701" y="130" width="5" height="6" fill="#08D9D6" rx="0" transform="matrix(.62718 .92402 -.816 .39222 395.408 -630.763)"/><rect x="523" y="519" width="9" height="17" fill="#08D9D6" rx="0" transform="matrix(-.96372 .10493 -.3612 -.99832 1392.137 952.615)"/><rect x="1352" y="726" width="5" height="8" fill="#FF2E63" rx="0" transform="matrix(-.04895 1.00368 -.99206 -.08781 2234.276 -731.69)"/><rect x="139" y="276" width="7" height="13" fill="#EAEAEA" rx="0" transform="matrix(.896 .29525 -.45634 .9657 134.571 -52.41)"/><rect x="1222" y="766" width="7" height="13" fill="#252A34" rx="0" transform="matrix(1.0932 .37829 .0623 .9363 144.609 -242.148)"/><rect x="1427" y="807" width="8" height="9" fill="#FF2E63" rx="0" transform="matrix(-1.03369 -.10556 -.36121 -1.0043 3532.352 1978.65)"/><rect x="1062" y="726" width="8" height="12" fill="#EAEAEA" rx="0" transform="matrix(.15763 .9974 -.97765 .15797 1695.427 -596.675)"/><rect x="209" y="622" width="9" height="22" fill="#08D9D6" rx="0" transform="matrix(-.8121 .37552 -.65295 -.92945 949.787 1156.096)"/><rect x="1276" y="678" width="8" height="18" fill="#EAEAEA" rx="0" transform="matrix(.48244 .98354 -.9142 .20906 1435.386 -581.014)"/><rect x="193" y="613" width="7" height="14" fill="#FF2E63" rx="0" transform="matrix(.39017 1.04314 -.98592 -.07294 838.818 520.323)"/><rect x="512" y="190" width="9" height="9" fill="#EAEAEA" rx="0" transform="matrix(.7237 .89155 -.7529 .45427 346.097 -336.304)"/><rect x="980" y="46" width="6" height="14" fill="#252A34" rx="0" transform="matrix(.17866 .99635 -1.0193 -.08717 878.892 -904.63)"/><rect x="845" y="449" width="9" height="19" fill="#252A34" rx="0" transform="matrix(-.27939 1.00137 -.9791 -.07002 1488.582 -434.384)"/><rect x="1170" y="285" width="7" height="15" fill="#252A34" rx="0" transform="matrix(-.0002 .9927 -1.00733 -.12189 1501.266 -816.295)"/><rect x="769" y="882" width="8" height="9" fill="#08D9D6" rx="0" transform="matrix(-.7041 .35409 -.88967 -.97284 2461.306 1682.34)"/><rect x="854" y="969" width="8" height="21" fill="#252A34" rx="0" transform="matrix(-.18557 .98776 -.97295 -.20995 2106.262 217.068)"/><rect x="1305" y="609" width="5" height="9" fill="#08D9D6" rx="0" transform="matrix(.988 .01762 -.13881 1.00967 108.357 -212.735)"/><rect x="119" y="982" width="6" height="10" fill="#EAEAEA" rx="0" transform="matrix(.3809 1.0281 -.94603 .0719 1080.405 821.032)"/><rect x="182" y="583" width="5" height="10" fill="#08D9D6" rx="0" transform="matrix(-.03608 .97452 -1.01782 -.22499 893.882 543.713)"/><rect x="420" y="96" width="7" height="11" fill="#FF2E63" rx="0" transform="matrix(.9872 .48384 -.21014 .90998 33.986 -90.18)"/><rect x="1320" y="417" width="9" height="23" fill="#FF2E63" rx="0" transform="matrix(.2981 .87454 -.97136 .50491 1324.697 -1132.325)"/><rect x="126" y="927" width="8" height="16" fill="#08D9D6" rx="0" transform="matrix(.39733 .97163 -.93013 .24225 1145.315 575.368)"/><rect x="455" y="289" width="9" height="21" fill="#252A34" rx="0" transform="matrix(.9091 .19319 -.49943 .99386 155.442 -159.71)"/><rect x="622" y="969" width="7" height="11" fill="#FF2E63" rx="0" transform="matrix(.28425 1.0252 -1.01537 -.14408 1618.07 641.248)"/><rect x="511" y="410" width="9" height="10" fill="#FF2E63" rx="0" transform="matrix(-.73452 .60218 -.68589 -.79912 1234.583 418.21)"/><rect x="1196" y="817" width="8" height="15" fill="#08D9D6" rx="0" transform="matrix(-.32234 .71916 -1.05671 -.74472 2765.147 897.06)"/><rect x="1442" y="695" width="8" height="16" fill="#08D9D6" rx="0" transform="matrix(-.64747 .5201 -.84514 -.8656 3202.32 762.669)"/><rect x="832" y="881" width="6" height="7" fill="#08D9D6" rx="0" transform="matrix(.90506 .79393 -.55245 .62028 814.016 -224.547)"/><rect x="1045" y="537" width="6" height="16" fill="#08D9D6" rx="0" transform="matrix(-.96435 -.20063 .02319 -1.03214 1921.55 1658.293)"/><rect x="962" y="696" width="6" height="7" fill="#FF2E63" rx="0" transform="matrix(-.59109 .88632 -.81397 -.47126 2072.54 89.424)"/><rect x="932" y="572" width="8" height="8" fill="#08D9D6" rx="0" transform="matrix(.97701 .45845 -.26376 .89976 326.484 -502.92)"/><rect x="78" y="46" width="5" height="13" fill="#08D9D6" rx="0" transform="matrix(-.8051 .34459 -.69004 -.94675 197.091 84.35)"/><rect x="110" y="386" width="5" height="8" fill="#252A34" rx="0" transform="matrix(-.46609 .6625 -.97325 -.76213 660.865 628.508)"/><rect x="500" y="484" width="5" height="13" fill="#FF2E63" rx="0" transform="matrix(.9468 .68673 -.40465 .7627 288.96 -112.672)"/><rect x="945" y="375" width="6" height="13" fill="#08D9D6" rx="0" transform="matrix(1.08611 .39222 .00915 .92402 74.797 -259.903)"/><rect x="367" y="187" width="8" height="13" fill="#252A34" rx="0" transform="matrix(-.6038 .67945 -.80118 -.7546 754.559 152.857)"/><rect x="607" y="814" width="7" height="15" fill="#FF2E63" rx="0" transform="matrix(-.45739 .7436 -.93298 -.66954 1866.316 938.879)"/><rect x="672" y="700" width="6" height="9" fill="#08D9D6" rx="0" transform="matrix(-.22818 .92402 -.98537 -.39222 1590.015 416.162)"/><rect x="365" y="314" width="8" height="21" fill="#252A34" rx="0" transform="matrix(-.05584 .88223 -1.10125 -.50936 868.098 235.969)"/><rect x="42" y="162" width="9" height="23" fill="#FF2E63" rx="0" transform="matrix(-.92167 .37667 -.37363 -.9323 171.904 312.85)"/><rect x="718" y="54" width="8" height="20" fill="#FF2E63" rx="0" transform="matrix(.9521 .79235 -.5182 .61905 113.193 -471.812)"/><rect x="323" y="686" width="5" height="12" fill="#252A34" rx="0" transform="matrix(1.12953 .69273 -.18908 .76936 356.985 21.335)"/><rect x="997" y="467" width="6" height="8" fill="#08D9D6" rx="0" transform="matrix(.1401 1.0032 -1.0017 -.03503 1380.554 -428.22)"/><rect x="1316" y="346" width="6" height="12" fill="#FF2E63" rx="0" transform="matrix(.46978 .73854 -.91594 .6887 998.352 -1049.932)"/><rect x="921" y="525" width="7" height="20" fill="#08D9D6" rx="0" transform="matrix(-.79121 .8215 -.64244 -.59685 1967.136 -68.172)"/><rect x="559" y="788" width="6" height="9" fill="#08D9D6" rx="0" transform="matrix(.06533 .99023 -1.02138 -.1746 1587.273 315.295)"/><rect x="931" y="582" width="9" height="26" fill="#08D9D6" rx="0" transform="matrix(-.84356 .18065 -.7516 -1.0245 2435.774 1303.83)"/><rect x="252" y="689" width="8" height="13" fill="#08D9D6" rx="0" transform="matrix(.46636 .96322 -.8776 .33166 720.962 268.007)"/><rect x="488" y="926" width="8" height="11" fill="#FF2E63" rx="0" transform="matrix(.34575 1.01845 -.95164 .0891 1262.64 452.001)"/><rect x="1376" y="696" width="5" height="11" fill="#252A34" rx="0" transform="matrix(.98833 .17535 -.09763 .99449 192.506 -431.594)"/><rect x="482" y="703" width="5" height="13" fill="#FF2E63" rx="0" transform="matrix(1.029 .29688 -.00264 .97106 85.427 -37.874)"/><rect x="726" y="285" width="8" height="22" fill="#08D9D6" rx="0" transform="matrix(.91195 .24494 -.42504 .9824 183.787 -289.213)"/><rect x="1306" y="533" width="5" height="5" fill="#FF2E63" rx="0" transform="matrix(.5592 .9479 -.82904 .38298 1020.746 -631.777)"/><rect x="281" y="701" width="9" height="21" fill="#EAEAEA" rx="0" transform="matrix(-.11356 1.00554 -.97853 -.14132 1142.659 474.625)"/><rect x="1229" y="811" width="9" height="14" fill="#FF2E63" rx="0" transform="matrix(-.83531 .517 -.54402 -.86044 2796.055 776.198)"/><rect x="26" y="752" width="5" height="10" fill="#EAEAEA" rx="0" transform="matrix(.1908 1.00844 -.98163 .05285 766.154 692.257)"/><rect x="205" y="824" width="6" height="7" fill="#EAEAEA" rx="0" transform="matrix(.69994 1.02253 -.8671 .16195 1033.205 536.531)"/><rect x="571" y="106" width="5" height="6" fill="#08D9D6" rx="0" transform="matrix(-.93905 .01846 -.37895 -1.05746 1164.052 411.15)"/><rect x="1443" y="641" width="6" height="11" fill="#08D9D6" rx="0" transform="matrix(.61801 .83867 -.79102 .54464 1120.31 -918.327)"/><rect x="1382" y="665" width="7" height="20" fill="#FF2E63" rx="0" transform="matrix(-.20868 1.00306 -.98236 -.07014 2319.226 -813.015)"/><rect x="991" y="411" width="6" height="10" fill="#08D9D6" rx="0" transform="matrix(-1.00062 .03492 .01773 -1 1941.807 832)"/><rect x="979" y="136" width="8" height="22" fill="#08D9D6" rx="0" transform="matrix(-.44638 .78478 -.91277 -.6355 1580.914 -392.871)"/><rect x="1104" y="761" width="7" height="11" fill="#EAEAEA" rx="0" transform="matrix(.4695 .73044 -.91565 .70537 1219.228 -778.41)"/><rect x="1346" y="209" width="6" height="12" fill="#EAEAEA" rx="0" transform="rotate(2 1349 215)"/><rect x="171" y="911" width="9" height="24" fill="#08D9D6" rx="0" transform="matrix(-.46408 .94149 -.87465 -.38039 1126.625 1077.92)"/><rect x="647" y="275" width="5" height="14" fill="#EAEAEA" rx="0" transform="matrix(-.95566 .12217 -.4023 -.99497 1453.243 528.652)"/><rect x="190" y="540" width="8" height="10" fill="#252A34" rx="0" transform="matrix(.98829 .38162 -.17432 .94454 107.449 -6.097)"/><rect x="811" y="432" width="9" height="22" fill="#08D9D6" rx="0" transform="matrix(.27698 .98054 -.96098 .20842 1069.582 -505.982)"/><rect x="493" y="834" width="7" height="19" fill="#252A34" rx="0" transform="matrix(-.74803 .8215 -.67382 -.59685 1409.86 851.526)"/><rect x="200" y="122" width="7" height="18" fill="#EAEAEA" rx="0" transform="matrix(-.9375 .12508 -.3598 -1.01865 444.524 285.973)"/><rect x="1382" y="893" width="7" height="16" fill="#FF2E63" rx="0" transform="matrix(.1732 1.00844 -.98255 .05285 2011.674 -349.097)"/><rect x="1456" y="53" width="5" height="8" fill="#08D9D6" rx="0" transform="matrix(-.92957 .22916 -.33733 -.9926 2809.695 62.85)"/><rect x="59" y="654" width="5" height="7" fill="#FF2E63" rx="0" transform="matrix(.85982 .59511 -.49692 .8191 300.376 92.082)"/><rect x="1272" y="604" width="6" height="10" fill="#08D9D6" rx="0" transform="matrix(-.8279 .29688 -.6604 -.97106 2909.99 1046.666)"/><rect x="704" y="430" width="9" height="21" fill="#08D9D6" rx="0" transform="matrix(-1.01357 -.27064 -.08783 -1.01006 1499.746 1293.794)"/><rect x="550" y="144" width="7" height="7" fill="#FF2E63" rx="0" transform="matrix(.98981 -.0524 .19438 1 0 0)"/><rect x="248" y="237" width="6" height="9" fill="#FF2E63" rx="0" transform="matrix(-.69697 .41084 -.79209 -.96788 662.63 453.676)"/><rect x="430" y="785" width="6" height="17" fill="#FF2E63" rx="0" transform="matrix(.78128 .70808 -.631 .70808 717.486 -97.65)"/><rect x="13" y="324" width="9" height="10" fill="#FF2E63" rx="0" transform="matrix(-.8012 .39804 -.62477 -.93773 260.313 633.95)"/><rect x="1425" y="697" width="6" height="16" fill="#252A34" rx="0" transform="matrix(-.437 .62304 -1.0251 -.8268 3086.61 780.823)"/><rect x="1297" y="423" width="5" height="8" fill="#FF2E63" rx="0" transform="matrix(-.89408 .27835 -.47462 -.9707 2706.65 662.414)"/><rect x="410" y="217" width="7" height="14" fill="#08D9D6" rx="0" transform="matrix(.99452 .1746 -.08704 .99023 17.096 -26.55)"/><rect x="1178" y="440" width="8" height="9" fill="#252A34" rx="0" transform="matrix(.78896 .58242 -.5902 .83179 544.974 -822.075)"/><rect x="373" y="140" width="6" height="15" fill="#08D9D6" rx="0" transform="matrix(.45399 1.01265 -.891 .21525 336.723 -164.257)"/><rect x="53" y="159" width="6" height="15" fill="#EAEAEA" rx="0" transform="matrix(-.96838 -.05473 -.20546 -1.04426 138.026 360.555)"/><rect x="417" y="380" width="8" height="12" fill="#08D9D6" rx="0" transform="matrix(.87907 .31134 -.50645 .9582 217.153 -166.63)"/><rect x="1147" y="188" width="6" height="12" fill="#EAEAEA" rx="0" transform="matrix(-.6259 .91311 -.8033 -.4258 2020.065 -914.68)"/><rect x="906" y="438" width="7" height="10" fill="#252A34" rx="0" transform="matrix(-.4027 .79864 -.94868 -.60182 1806.469 -16.755)"/><rect x="1388" y="616" width="6" height="9" fill="#EAEAEA" rx="0" transform="matrix(-1.0018 .22499 -.10549 -.97452 2787.285 887.954)"/><rect x="576" y="420" width="5" height="13" fill="#252A34" rx="0" transform="matrix(.97614 .40451 -.17245 .95298 67.046 -58.948)"/><rect x="451" y="425" width="8" height="15" fill="#EAEAEA" rx="0" transform="matrix(-.878 .24829 -.50618 -.99582 1101.581 855.267)"/><rect x="1062" y="233" width="9" height="18" fill="#FF2E63" rx="0" transform="matrix(-.69368 .58173 -.69059 -.86245 1925.507 136.113)"/><rect x="410" y="901" width="9" height="24" fill="#08D9D6" rx="0" transform="matrix(.96826 .3908 -.27784 .92065 363.548 -82.297)"/><rect x="352" y="673" width="8" height="23" fill="#EAEAEA" rx="0" transform="matrix(.31087 .99313 -.95768 .1573 938.699 260.694)"/><rect x="37" y="802" width="5" height="5" fill="#FF2E63" rx="0" transform="matrix(-.86955 .2018 -.48188 -1.03819 447.238 1645.353)"/><rect x="687" y="628" width="6" height="15" fill="#FF2E63" rx="0" transform="matrix(-.68241 .7071 -.7318 -.7071 1648.116 596.963)"/><rect x="692" y="413" width="7" height="11" fill="#08D9D6" rx="0" transform="matrix(.86206 .56616 -.48821 .83937 371.44 -436.7)"/><rect x="1411" y="895" width="8" height="22" fill="#08D9D6" rx="0" transform="matrix(-.45067 .70537 -.951 -.73044 3138.917 819.173)"/><rect x="32" y="439" width="9" height="17" fill="#FF2E63" rx="0" transform="matrix(-.5322 .71293 -.85156 -.73826 444.955 760.277)"/><rect x="866" y="326" width="5" height="14" fill="#FF2E63" rx="0" transform="matrix(.65732 .89223 -.78586 .45461 626.05 -547.771)"/><rect x="842" y="500" width="5" height="7" fill="#08D9D6" rx="0" transform="matrix(.45401 .89893 -.891 .43844 926.774 -491.141)"/><rect x="465" y="243" width="6" height="16" fill="#252A34" rx="0" transform="matrix(-.4978 .87796 -.86307 -.48666 932.289 -78.678)"/><rect x="479" y="874" width="5" height="10" fill="#252A34" rx="0" transform="matrix(-.97216 .08879 -.15103 -1.01484 962.933 1821.888)"/><rect x="1217" y="532" width="5" height="7" fill="#252A34" rx="0" transform="matrix(-.87061 .21112 -.64074 -.99324 2825.437 1024.95)"/><rect x="1247" y="432" width="6" height="11" fill="#FF2E63" rx="0" transform="matrix(.70924 .95036 -.73646 .42313 741.303 -577.138)"/><rect x="945" y="399" width="5" height="6" fill="#EAEAEA" rx="0" transform="matrix(-.69726 .65616 -.72191 -.75482 1927.632 100.268)"/><rect x="1349" y="918" width="8" height="13" fill="#FF2E63" rx="0" transform="matrix(.72191 .75482 -.69726 .65616 1087.169 -679.78)"/><rect x="657" y="515" width="9" height="25" fill="#252A34" rx="0" transform="matrix(.28675 1 -.995 .01746 1144.625 -154.754)"/><rect x="473" y="163" width="7" height="18" fill="#08D9D6" rx="0" transform="matrix(.55063 .85862 -.82059 .53652 324.878 -253.944)"/><rect x="196" y="781" width="7" height="19" fill="#EAEAEA" rx="0" transform="matrix(-.84188 .3678 -.52573 -.95814 753.835 1520.59)"/><rect x="650" y="724" width="6" height="11" fill="#252A34" rx="0" transform="matrix(.81571 .59102 -.56925 .81347 616.75 -318.5)"/><rect x="1414" y="304" width="7" height="15" fill="#EAEAEA" rx="0" transform="matrix(1.00616 -.03492 -.17633 1 0 0)"/><rect x="1348" y="134" width="9" height="10" fill="#252A34" rx="0" transform="matrix(.72993 1.0114 -.76556 .30922 556.669 -806.207)"/><rect x="1119" y="326" width="6" height="10" fill="#EAEAEA" rx="0" transform="matrix(.81852 .75045 -.59554 .6757 434.915 -576.975)"/><rect x="508" y="759" width="6" height="17" fill="#FF2E63" rx="0" transform="matrix(.48432 .84921 -.87493 .53065 851.535 -46.938)"/><rect x="110" y="612" width="7" height="7" fill="#252A34" rx="0" transform="matrix(.4899 .96848 -.89207 .2777 814.097 320.713)"/><rect x="889" y="558" width="5" height="11" fill="#252A34" rx="0" transform="matrix(-.98472 .1046 -.19194 -.99513 1942.906 999.879)"/><rect x="1057" y="707" width="9" height="21" fill="#08D9D6" rx="0" transform="matrix(-.44312 .97983 -.9101 -.2443 2145.132 -296.49)"/><rect x="797" y="852" width="9" height="21" fill="#252A34" rx="0" transform="matrix(.75424 .9176 -.73809 .42789 1043.894 -115.067)"/><rect x="301" y="196" width="9" height="13" fill="#252A34" rx="0" transform="matrix(.932 .54597 -.39645 .84072 124.582 -113.176)"/><rect x="990" y="75" width="8" height="10" fill="#252A34" rx="0" transform="matrix(.6736 .95157 -.77874 .38446 419.278 -667.137)"/><rect x="689" y="307" width="8" height="15" fill="#08D9D6" rx="0" transform="matrix(.78387 .84598 -.61254 .61464 333.236 -253.2)"/><rect x="1153" y="704" width="7" height="17" fill="#08D9D6" rx="0" transform="matrix(.88856 .6438 -.41599 .82402 350.723 -265.58)"/><rect x="1131" y="231" width="7" height="18" fill="#08D9D6" rx="0" transform="matrix(.18954 1.01404 -.97623 .05314 1138.394 -723.134)"/><rect x="1366" y="935" width="6" height="16" fill="#FF2E63" rx="0" transform="matrix(1.01443 .1397 .06009 .99405 159.64 -305.418)"/><rect x="203" y="706" width="9" height="19" fill="#EAEAEA" rx="0" transform="matrix(-.1775 .83974 -1.0571 -.63279 1138.733 1061.434)"/><rect x="812" y="945" width="6" height="16" fill="#EAEAEA" rx="0" transform="matrix(.09431 .93015 -1.11908 -.43373 2175.4 796.437)"/><rect x="356" y="79" width="9" height="15" fill="#EAEAEA" rx="0" transform="matrix(.97603 .54597 -.32865 .84072 56.984 -208.253)"/><rect x="1033" y="81" width="8" height="8" fill="#252A34" rx="0" transform="matrix(-.93103 .47062 -.37385 -.8851 2006.482 -255.283)"/><rect x="1254" y="122" width="7" height="9" fill="#FF2E63" rx="0" transform="matrix(-.298 .99893 -.98023 -.06985 1745.56 -1186.725)"/><rect x="1227" y="631" width="7" height="17" fill="#EAEAEA" rx="0" transform="matrix(.81845 .8717 -.59513 .58797 640.274 -409.322)"/><rect x="373" y="125" width="8" height="8" fill="#EAEAEA" rx="0" transform="matrix(.58074 1 -.80003 .34433 252.227 -162.607)"/><rect x="696" y="331" width="8" height="11" fill="#FF2E63" rx="0" transform="matrix(-.52992 .8851 -.84805 -.47062 1356.312 -173.658)"/><rect x="775" y="617" width="9" height="24" fill="#252A34" rx="0" transform="matrix(-.92498 .12617 -.39254 -1.02756 1762.058 1385.853)"/><rect x="668" y="938" width="5" height="13" fill="#EAEAEA" rx="0" transform="matrix(.13814 1.00506 -.98531 .07028 1454.692 286.558)"/><rect x="170" y="921" width="8" height="22" fill="#252A34" rx="0" transform="matrix(.87369 .61905 -.4971 .79235 713.092 67.525)"/><rect x="1178" y="201" width="5" height="7" fill="#252A34" rx="0" transform="matrix(-.96734 .22776 -.20066 -.98652 2294.456 324.35)"/><rect x="74" y="840" width="7" height="10" fill="#08D9D6" rx="0" transform="matrix(.48914 1.03275 -.93408 .07222 966.014 724.704)"/><rect x="601" y="820" width="8" height="23" fill="#EAEAEA" rx="0" transform="matrix(.53278 1.01071 -.89546 .17822 1163.733 211.508)"/><rect x="933" y="213" width="6" height="13" fill="#08D9D6" rx="0" transform="matrix(-.55787 .89976 -.82715 -.45845 1641.263 -653.594)"/><rect x="1420" y="405" width="7" height="16" fill="#08D9D6" rx="0" transform="matrix(.95298 .61566 -.40451 .78801 344.665 -788.843)"/><rect x="1355" y="323" width="5" height="13" fill="#EAEAEA" rx="0" transform="matrix(-.58639 .682 -.83745 -.73135 2499.503 -355.332)"/><rect x="1263" y="697" width="8" height="21" fill="#08D9D6" rx="0" transform="matrix(.69136 .9926 -.84783 .22916 1264.379 -465.985)"/><rect x="772" y="679" width="7" height="19" fill="#FF2E63" rx="0" transform="matrix(-.97936 .25886 -.20808 -.96607 1629.17 1166.433)"/><rect x="553" y="874" width="5" height="12" fill="#FF2E63" rx="0" transform="matrix(.87326 .7671 -.57087 .64367 799.438 -83.439)"/><rect x="964" y="205" width="7" height="20" fill="#FF2E63" rx="0" transform="matrix(.12026 .97756 -1.06673 -.3558 1176.21 -376.867)"/><rect x="860" y="674" width="6" height="10" fill="#252A34" rx="0" transform="matrix(-.94644 .07294 -.17443 -1.04314 1631.971 1588.19)"/><rect x="1361" y="780" width="9" height="26" fill="#EAEAEA" rx="0" transform="matrix(-.80764 .65967 -.58682 -.75887 2945.016 350.478)"/><rect x="1221" y="778" width="8" height="17" fill="#252A34" rx="0" transform="matrix(1.00657 .10531 .08139 1.002 122.415 -280.986)"/><rect x="1303" y="334" width="6" height="17" fill="#FF2E63" rx="0" transform="matrix(.8878 .32577 -.49133 .9461 273.093 -452.595)"/><rect x="29" y="617" width="9" height="10" fill="#08D9D6" rx="0" transform="matrix(-.83505 .59102 -.54263 -.81347 431.405 1104.66)"/><rect x="892" y="681" width="9" height="14" fill="#EAEAEA" rx="0" transform="matrix(.14827 1.00244 -1.00533 -.05254 1630.032 -252.98)"/><rect x="770" y="448" width="6" height="13" fill="#08D9D6" rx="0" transform="matrix(-.42262 .9657 -.9063 -.29525 1511.6 -266.438)"/><rect x="35" y="528" width="7" height="17" fill="#252A34" rx="0" transform="matrix(.8341 .44005 -.56232 .90223 280.132 32.145)"/><rect x="696" y="864" width="8" height="13" fill="#08D9D6" rx="0" transform="matrix(-.69275 .44816 -.81097 -.91887 2107.535 1505.454)"/><rect x="1352" y="243" width="5" height="11" fill="#252A34" rx="0" transform="matrix(.99572 -.01752 .03573 1.00367 10.577 -95.685)"/><rect x="87" y="887" width="8" height="22" fill="#08D9D6" rx="0" transform="matrix(.828 .57436 -.55856 .82028 485.718 113.894)"/><rect x="67" y="711" width="8" height="10" fill="#252A34" rx="0" transform="matrix(1.00722 -.05246 -.15814 1.00107 12.788 -2.005)"/><rect x="877" y="796" width="7" height="7" fill="#EAEAEA" rx="0" transform="matrix(-.3905 .92846 -.91929 -.37512 1900.165 328.048)"/><rect x="785" y="926" width="8" height="18" fill="#08D9D6" rx="0" transform="matrix(.92082 .42914 -.35555 .92029 282.012 -124.938)"/><rect x="585" y="626" width="8" height="19" fill="#FF2E63" rx="0" transform="matrix(.66717 .98083 -.84078 .26281 914.698 -5.367)"/><rect x="1114" y="363" width="6" height="7" fill="#FF2E63" rx="0" transform="matrix(-.97867 .07014 -.2614 -1.00306 2348.316 773.175)"/><rect x="1030" y="756" width="7" height="17" fill="#08D9D6" rx="0" transform="matrix(.63772 .58073 -.81122 .82936 910.15 -633.419)"/><rect x="222" y="562" width="5" height="12" fill="#252A34" rx="0" transform="matrix(.80003 .44166 -.62386 .90554 351.966 -73.067)"/><rect x="1315" y="866" width="7" height="8" fill="#FF2E63" rx="0" transform="matrix(.31898 1.01404 -1.00288 -.05314 1984.732 -188.283)"/><rect x="1364" y="503" width="7" height="19" fill="#FF2E63" rx="0" transform="matrix(-.94597 .35842 -.32567 -.93372 2799.908 524.76)"/><rect x="74" y="516" width="5" height="10" fill="#FF2E63" rx="0" transform="matrix(.76847 .75715 -.60413 .70606 275.55 115.72)"/><rect x="48" y="941" width="9" height="12" fill="#08D9D6" rx="0" transform="matrix(.19199 1.0181 -.98893 -.03555 1012.364 937.423)"/><rect x="651" y="929" width="9" height="18" fill="#EAEAEA" rx="0" transform="matrix(.85924 .34286 -.55593 .94199 472.427 -216.163)"/><rect x="885" y="810" width="5" height="14" fill="#EAEAEA" rx="0" transform="matrix(-.8747 .51535 -.48466 -.85769 2000.476 1091.35)"/><rect x="610" y="779" width="8" height="22" fill="#08D9D6" rx="0" transform="matrix(.38365 1.002 -.95769 .10531 1272.078 166.97)"/><rect x="776" y="480" width="8" height="11" fill="#252A34" rx="0" transform="matrix(.18959 1.04974 -.9759 -.1289 1092.757 -2.143)"/><rect x="523" y="899" width="6" height="16" fill="#FF2E63" rx="0" transform="matrix(-.93275 .19186 -.41356 -.98703 1509.882 1756.607)"/><rect x="1330" y="319" width="7" height="9" fill="#252A34" rx="0" transform="matrix(-.99548 .12204 -.0867 -.9939 2654.607 552.18)"/><rect x="1408" y="594" width="7" height="9" fill="#252A34" rx="0" transform="matrix(.52642 .89976 -.84318 .45845 1131.336 -747.526)"/><rect x="685" y="858" width="6" height="17" fill="#252A34" rx="0" transform="matrix(-.90737 .2758 -.46136 -.96185 1853.085 1534.212)"/><rect x="229" y="736" width="7" height="8" fill="#252A34" rx="0" transform="matrix(-.82111 .62942 -.57479 -.77726 783.653 1172.895)"/><rect x="684" y="195" width="6" height="6" fill="#FF2E63" rx="0" transform="matrix(.8016 .66424 -.58335 .76412 230.35 -300.816)"/><rect x="784" y="342" width="8" height="22" fill="#FF2E63" rx="0" transform="matrix(.94253 .43944 -.34314 .90099 180.668 -256.227)"/><rect x="419" y="931" width="9" height="20" fill="#EAEAEA" rx="0" transform="matrix(-.7715 .8516 -.67323 -.55304 1292.685 1026.08)"/><rect x="1108" y="127" width="6" height="12" fill="#08D9D6" rx="0" transform="matrix(-.84805 .45572 -.52992 -.89441 2123.66 -157.154)"/><rect x="288" y="808" width="6" height="13" fill="#08D9D6" rx="0" transform="matrix(.12187 .99893 -.99255 .06985 1063.965 482.167)"/><rect x="395" y="946" width="6" height="14" fill="#08D9D6" rx="0" transform="matrix(-.8951 .17581 -.61148 -.99708 1628.334 1896.284)"/><rect x="1122" y="450" width="5" height="12" fill="#252A34" rx="0" transform="matrix(.7828 .72209 -.62893 .69731 607.041 -772.343)"/><rect x="86" y="912" width="7" height="16" fill="#EAEAEA" rx="0" transform="matrix(.9205 .43897 -.39073 .90003 366.587 57.377)"/><rect x="149" y="684" width="5" height="6" fill="#252A34" rx="0" transform="matrix(-.2664 .8151 -1.0333 -.5922 1090.802 988.956)"/><rect x="1256" y="657" width="6" height="16" fill="#FF2E63" rx="0" transform="matrix(.17498 .9846 -1.07249 -.31992 1983.317 -24.526)"/><rect x="1017" y="275" width="5" height="11" fill="#252A34" rx="0" transform="matrix(-.42262 .76079 -.9063 -.73469 1704.579 61.997)"/><rect x="121" y="592" width="5" height="10" fill="#252A34" rx="0" transform="matrix(-.94462 .1392 -.4629 -.99042 721.332 1168.934)"/><rect x="159" y="592" width="9" height="26" fill="#252A34" rx="0" transform="matrix(.38896 .9968 -.96918 .0872 849.897 394.971)"/><rect x="770" y="188" width="6" height="13" fill="#EAEAEA" rx="0" transform="matrix(.99863 .2105 -.05234 .99034 11.239 -38.41)"/><rect x="1270" y="747" width="7" height="19" fill="#FF2E63" rx="0" transform="matrix(.48318 .95996 -.894 .29349 1519.455 -799.447)"/><rect x="572" y="570" width="6" height="12" fill="#252A34" rx="0" transform="matrix(-.26003 .7304 -1.09983 -.75636 1576.757 778.507)"/><rect x="691" y="644" width="6" height="16" fill="#252A34" rx="0" transform="matrix(.62359 1.05082 -.92986 .0367 1102.623 124.299)"/><rect x="197" y="409" width="9" height="19" fill="#EAEAEA" rx="0" transform="matrix(.7649 .64367 -.64202 .7671 293.57 -21.669)"/><rect x="516" y="307" width="5" height="6" fill="#FF2E63" rx="0" transform="matrix(-.57956 .63738 -.82712 -.8158 1091.086 371.351)"/><rect x="941" y="53" width="8" height="22" fill="#08D9D6" rx="0" transform="matrix(-.65649 .49085 -.85294 -.88552 1677.222 -193.51)"/><rect x="166" y="430" width="7" height="18" fill="#08D9D6" rx="0" transform="matrix(-.91569 .27835 -.39927 -.9707 611.237 794.14)"/><rect x="229" y="149" width="6" height="9" fill="#EAEAEA" rx="0" transform="matrix(.95456 .22664 -.27763 .98169 21.069 -21.284)"/><rect x="138" y="446" width="6" height="6" fill="#EAEAEA" rx="0" transform="matrix(.0686 .98297 -1.00399 .19107 501.644 232)"/><rect x="961" y="157" width="9" height="12" fill="#252A34" rx="0" transform="matrix(.83399 .80547 -.54172 .67587 240.263 -411.135)"/><rect x="764" y="938" width="5" height="13" fill="#08D9D6" rx="0" transform="matrix(-.88661 .44079 -.45085 -.90374 1782.236 1540.787)"/><rect x="596" y="178" width="7" height="10" fill="#FF2E63" rx="0" transform="matrix(-.12446 1.00617 -.97415 -.15936 804.944 -274.507)"/><rect x="373" y="304" width="9" height="24" fill="#FF2E63" rx="0" transform="matrix(-.19218 .99924 -.9907 -.05237 731.279 -57.847)"/><rect x="1125" y="734" width="8" height="21" fill="#08D9D6" rx="0" transform="matrix(-.35592 .9176 -.92383 -.42789 2137.84 205.901)"/><rect x="1288" y="384" width="8" height="18" fill="#252A34" rx="0" transform="matrix(.81494 .83937 -.64168 .56616 585.932 -709.338)"/><rect x="36" y="511" width="7" height="19" fill="#EAEAEA" rx="0" transform="matrix(-.24294 .99087 -.97507 -.13926 520.32 552.465)"/><rect x="571" y="965" width="8" height="18" fill="#252A34" rx="0" transform="matrix(-.4256 .94682 -.90963 -.32601 1546.655 777.254)"/><rect x="831" y="976" width="5" height="8" fill="#FF2E63" rx="0" transform="matrix(-.03352 .98904 -1.00577 -.15665 2012.188 265.466)"/><rect x="957" y="813" width="7" height="19" fill="#252A34" rx="0" transform="matrix(.96693 .24374 -.22462 .97758 117.67 -97.738)"/><rect x="761" y="932" width="8" height="14" fill="#08D9D6" rx="0" transform="matrix(.74304 .66923 -.66902 .74326 840.95 -284.235)"/><rect x="294" y="385" width="6" height="8" fill="#08D9D6" rx="0" transform="matrix(-.82623 .24645 -.74379 -.98846 976.876 758.045)"/><rect x="1314" y="925" width="8" height="15" fill="#FF2E63" rx="0" transform="matrix(-.22923 1.0032 -1.0048 .03503 2413.013 -537.707)"/><rect x="38" y="968" width="6" height="13" fill="#08D9D6" rx="0" transform="matrix(.66847 .61604 -.76767 .7885 607.57 179.426)"/><rect x="310" y="955" width="5" height="5" fill="#252A34" rx="0" transform="matrix(-.87934 .31715 -.44678 -.97607 943.091 1865.128)"/><rect x="319" y="313" width="9" height="22" fill="#252A34" rx="0" transform="matrix(-.62238 .50623 -.8974 -.87682 930.315 495.561)"/><rect x="1423" y="11" width="5" height="9" fill="#08D9D6" rx="0" transform="matrix(.17565 .9875 -1.05972 -.2646 1265.071 -1085.088)"/><rect x="1479" y="664" width="8" height="23" fill="#252A34" rx="0" transform="matrix(-.64071 .66618 -.76404 -.76635 3083.805 -56.267)"/><rect x="1361" y="33" width="8" height="16" fill="#08D9D6" rx="0" transform="matrix(.06993 1 -1.02138 -.30573 1343.475 -894.143)"/><rect x="1176" y="314" width="8" height="13" fill="#FF2E63" rx="0" transform="matrix(-.94932 .57436 -.38528 -.82028 2378.077 -156.192)"/><rect x="1256" y="825" width="9" height="18" fill="#08D9D6" rx="0" transform="matrix(-.98386 -.17753 .05318 -1.0068 2359.892 2165.38)"/><rect x="980" y="372" width="5" height="9" fill="#EAEAEA" rx="0" transform="matrix(.50844 .96846 -.84751 .3525 769.478 -462.76)"/><rect x="1146" y="667" width="8" height="18" fill="#FF2E63" rx="0" transform="matrix(.37225 1.02172 -.99174 -.03568 1571.246 -230.416)"/><rect x="1153" y="892" width="8" height="18" fill="#EAEAEA" rx="0" transform="matrix(1.06895 .54764 -.17999 .84329 414.665 -370.817)"/><rect x="1035" y="836" width="6" height="12" fill="#08D9D6" rx="0" transform="matrix(-1.03628 -.23289 -.19467 -1.00874 2454.977 2211.228)"/><rect x="1111" y="125" width="7" height="17" fill="#252A34" rx="0" transform="matrix(.9748 .24565 -.16108 .98526 33.885 -468.33)"/><rect x="1219" y="683" width="9" height="10" fill="#FF2E63" rx="0" transform="matrix(-.70217 .71406 -.69828 -.71406 2442.163 477.575)"/><rect x="1178" y="145" width="9" height="25" fill="#08D9D6" rx="0" transform="matrix(-.83867 .28823 -.54464 -1.00518 2260.009 336.509)"/><rect x="831" y="483" width="8" height="13" fill="#252A34" rx="0" transform="matrix(.30791 1.00137 -.9771 .07002 1191.492 -453.977)"/><rect x="771" y="390" width="8" height="21" fill="#08D9D6" rx="0" transform="matrix(.19421 .96823 -1.0922 -.29602 1242.077 -108.572)"/><rect x="1273" y="915" width="9" height="20" fill="#08D9D6" rx="0" transform="matrix(-1.00861 .24192 -.08824 -.9703 2501.12 1513.468)"/><rect x="45" y="397" width="5" height="11" fill="#EAEAEA" rx="0" transform="matrix(.29564 .98083 -.94033 .26281 495.715 241.753)"/><rect x="146" y="260" width="8" height="9" fill="#FF2E63" rx="0" transform="matrix(1.00193 .74472 -.37525 .71916 158.19 2.766)"/><rect x="1106" y="470" width="6" height="8" fill="#EAEAEA" rx="0" transform="matrix(.90116 .24325 -.49655 .97564 288.358 -374.783)"/><rect x="161" y="894" width="8" height="22" fill="#08D9D6" rx="0" transform="matrix(-.88615 .21112 -.56767 -.99324 1006.527 1798.139)"/><rect x="70" y="850" width="9" height="14" fill="#FF2E63" rx="0" transform="matrix(.3407 .94276 -.92994 .36189 950.013 466.155)"/><rect x="398" y="889" width="9" height="19" fill="#252A34" rx="0" transform="matrix(-.93815 .34459 -.32446 -.94675 1160.874 1561.037)"/><rect x="254" y="383" width="9" height="18" fill="#EAEAEA" rx="0" transform="matrix(-.0783 .96157 -1.01603 -.29398 795.562 231.505)"/><rect x="663" y="478" width="5" height="11" fill="#252A34" rx="0" transform="matrix(1.07617 .44193 .04504 .94772 61.062 -65.362)"/><rect x="759" y="585" width="6" height="13" fill="#252A34" rx="0" transform="matrix(-.78637 .52015 -.56048 -.90093 1549.918 946.543)"/><rect x="1080" y="29" width="9" height="23" fill="#252A34" rx="0" transform="matrix(-.83756 .42365 -.5643 -.90852 2025.86 -306.318)"/><rect x="597" y="350" width="5" height="7" fill="#08D9D6" rx="0" transform="matrix(.42262 .89893 -.9063 .43844 666.52 -350.861)"/><rect x="543" y="655" width="9" height="11" fill="#FF2E63" rx="0" transform="matrix(-.91922 .09067 -.5225 -1.03634 1525.368 1452.355)"/><rect x="304" y="61" width="5" height="8" fill="#EAEAEA" rx="0" transform="matrix(.9141 .682 -.48603 .73135 75.339 -191.57)"/><rect x="808" y="241" width="8" height="15" fill="#FF2E63" rx="0" transform="matrix(.85204 .7435 -.49296 .7435 215.791 -276.143)"/><rect x="795" y="989" width="6" height="17" fill="#FF2E63" rx="0" transform="matrix(.92366 .32877 -.35917 .95481 223.53 -105.129)"/><rect x="426" y="683" width="6" height="9" fill="#252A34" rx="0" transform="matrix(1.11059 .55897 -.07887 .86073 247.25 -45.006)"/><rect x="768" y="157" width="9" height="21" fill="#EAEAEA" rx="0" transform="matrix(.54763 1.0238 -.93846 .0716 592.872 -457.035)"/><rect x="1260" y="861" width="9" height="9" fill="#08D9D6" rx="0" transform="matrix(.56957 .85442 -.81448 .5339 1177.828 -521.738)"/><rect x="762" y="865" width="5" height="9" fill="#08D9D6" rx="0" transform="matrix(.89619 .29688 -.43704 .97106 472.195 -336.603)"/><rect x="164" y="226" width="5" height="8" fill="#252A34" rx="0" transform="matrix(-.79783 .73135 -.62334 -.682 406.278 265.09)"/><rect x="358" y="935" width="7" height="17" fill="#FF2E63" rx="0" transform="matrix(-.90554 .32557 -.44166 -.94552 1221.41 1717.904)"/><rect x="440" y="295" width="6" height="16" fill="#FF2E63" rx="0" transform="matrix(.91955 .68575 -.47215 .73538 240.336 -177.05)"/><rect x="946" y="75" width="6" height="9" fill="#EAEAEA" rx="0" transform="matrix(.9934 .27631 -.15471 .9636 21.115 -325.686)"/><rect x="710" y="451" width="6" height="16" fill="#FF2E63" rx="0" transform="matrix(.12194 .98769 -.99315 .15643 1065.882 -317.025)"/><rect x="32" y="445" width="7" height="13" fill="#EAEAEA" rx="0" transform="matrix(.84946 .61801 -.53083 .79102 252.95 75.52)"/><rect x="335" y="833" width="7" height="18" fill="#08D9D6" rx="0" transform="matrix(.45034 1.00554 -.9312 .14132 1096.851 442.318)"/><rect x="754" y="989" width="7" height="17" fill="#252A34" rx="0" transform="matrix(.74213 1.01757 -.825 .21629 1343.749 228.153)"/><rect x="1114" y="385" width="8" height="16" fill="#08D9D6" rx="0" transform="matrix(1.02869 .44658 -.13014 .91562 104.845 -248.792)"/><rect x="43" y="555" width="8" height="10" fill="#08D9D6" rx="0" transform="matrix(.41582 .97815 -.93395 .20791 669.503 397.597)"/><rect x="1294" y="731" width="5" height="10" fill="#FF2E63" rx="0" transform="matrix(.56257 .67282 -.8615 .74724 1106.205 -822.541)"/><rect x="854" y="491" width="7" height="18" fill="#08D9D6" rx="0" transform="matrix(.99013 .19186 -.11833 .98703 139.897 -248.164)"/><rect x="283" y="612" width="5" height="13" fill="#FF2E63" rx="0" transform="matrix(.48652 .91887 -.851 .44816 577.486 139.657)"/><rect x="1290" y="475" width="7" height="10" fill="#252A34" rx="0" transform="matrix(.17122 .95157 -1.12007 -.38446 1877.765 -267.69)"/><rect x="1186" y="975" width="5" height="12" fill="#EAEAEA" rx="0" transform="matrix(-.91143 .5201 -.40584 -.8656 2684.067 1044.974)"/><rect x="518" y="353" width="9" height="14" fill="#08D9D6" rx="0" transform="matrix(-.95255 .27669 -.29223 -.96493 1158.44 517.093)"/><rect x="126" y="188" width="8" height="10" fill="#08D9D6" rx="0" transform="matrix(-.93028 .22509 -.41324 -.97496 361.978 356.446)"/><rect x="1091" y="359" width="6" height="14" fill="#252A34" rx="0" transform="matrix(.42108 .98769 -.94577 .15643 1077.555 -771.786)"/><rect x="1004" y="831" width="8" height="10" fill="#08D9D6" rx="0" transform="matrix(.18897 1.03046 -.97374 -.01799 1593.6 63.66)"/><rect x="1036" y="936" width="5" height="7" fill="#08D9D6" rx="0" transform="matrix(-.02568 .8717 -1.12986 -.58797 2492.826 924.065)"/><rect x="99" y="923" width="9" height="23" fill="#EAEAEA" rx="0" transform="matrix(.22913 .91311 -.9883 .4258 922.713 429.382)"/><rect x="49" y="738" width="7" height="18" fill="#252A34" rx="0" transform="matrix(.95573 .31592 -.22391 .9723 76.496 15.263)"/><rect x="896" y="848" width="6" height="6" fill="#EAEAEA" rx="0" transform="matrix(.13917 1.00244 -.99027 .05254 1616.602 -16.253)"/><rect x="781" y="396" width="9" height="17" fill="#EAEAEA" rx="0" transform="matrix(.58078 .97039 -.83054 .33413 695.956 -311.55)"/><rect x="1409" y="344" width="6" height="17" fill="#FF2E63" rx="0" transform="matrix(.81854 .54539 -.57313 .83982 463.114 -787.623)"/><rect x="134" y="686" width="5" height="5" fill="#FF2E63" rx="0" transform="matrix(-.95452 .21112 -.24602 -.99324 577.404 1319.457)"/><rect x="435" y="765" width="5" height="11" fill="#252A34" rx="0" transform="matrix(.96034 .37829 -.26656 .9363 399.508 -177.904)"/><rect x="28" y="498" width="7" height="19" fill="#252A34" rx="0" transform="matrix(-.10496 .98223 -.9977 -.19093 567.79 574.554)"/><rect x="1063" y="428" width="8" height="8" fill="#EAEAEA" rx="0" transform="matrix(-.60669 .68366 -.81211 -.73314 2154.277 -55.365)"/><rect x="476" y="926" width="7" height="14" fill="#FF2E63" rx="0" transform="matrix(-.08905 1.00598 -.98626 -.08801 1301.783 600.135)"/><rect x="1417" y="323" width="5" height="9" fill="#EAEAEA" rx="0" transform="matrix(-.2598 .90768 -.96933 -.46249 2116.267 -533.569)"/><rect x="255" y="590" width="5" height="5" fill="#EAEAEA" rx="0" transform="matrix(-.25615 .94868 -.94536 -.4027 814.563 651.011)"/><rect x="637" y="406" width="9" height="17" fill="#FF2E63" rx="0" transform="matrix(-.96725 .0891 -.16732 -1.01845 1263.706 915.843)"/><rect x="993" y="722" width="8" height="19" fill="#EAEAEA" rx="0" transform="matrix(.20758 .96056 -1.13348 -.42767 1962.122 410.607)"/><rect x="1027" y="986" width="9" height="14" fill="#252A34" rx="0" transform="matrix(-.75695 .56966 -.63322 -.84455 2336.657 1444.542)"/><rect x="1315" y="406" width="7" height="19" fill="#FF2E63" rx="0" transform="matrix(.93591 .29398 -.34034 .96157 240.423 -510.229)"/><rect x="650" y="396" width="5" height="13" fill="#252A34" rx="0" transform="matrix(-.2936 .9141 -.96325 -.40698 1291.92 -52.926)"/><rect x="270" y="70" width="7" height="12" fill="#08D9D6" rx="0" transform="matrix(.6358 .9974 -.90191 .15797 207.557 -170.355)"/><rect x="774" y="752" width="5" height="5" fill="#252A34" rx="0" transform="matrix(.08112 1.04362 -.96816 -.12814 1338.168 293.108)"/><rect x="943" y="114" width="6" height="10" fill="#252A34" rx="0" transform="matrix(.89599 .50275 -.43715 .8708 142.787 -360.801)"/><rect x="1190" y="987" width="8" height="15" fill="#FF2E63" rx="0" transform="matrix(.85432 .90547 -.63084 .50191 1033.084 -265.855)"/><rect x="648" y="783" width="5" height="10" fill="#08D9D6" rx="0" transform="matrix(-.95266 .10822 -.17682 -1.0296 1239.862 1703.235)"/><rect x="850" y="413" width="9" height="19" fill="#EAEAEA" rx="0" transform="matrix(.9156 .34207 -.4078 .93984 206.151 -251.966)"/><rect x="950" y="626" width="9" height="25" fill="#EAEAEA" rx="0" transform="matrix(-.5373 .65482 -.88682 -.78038 2149.391 697.286)"/><rect x="1471" y="325" width="6" height="6" fill="#08D9D6" rx="0" transform="matrix(-.68678 .41744 -.85304 -.93758 2945.186 360.525)"/><rect x="723" y="260" width="5" height="12" fill="#08D9D6" rx="0" transform="matrix(.34138 1.00244 -1.01545 -.05254 848.671 -383.826)"/><rect x="519" y="753" width="9" height="16" fill="#FF2E63" rx="0" transform="matrix(-.24926 .89318 -.99259 -.4551 1535.676 676.356)"/><rect x="906" y="810" width="8" height="14" fill="#08D9D6" rx="0" transform="matrix(.96386 .80874 -.48344 .63186 664.986 -225.088)"/><rect x="507" y="830" width="7" height="18" fill="#08D9D6" rx="0" transform="matrix(.47435 1.00518 -.85883 .28823 919.317 240.103)"/><rect x="1414" y="499" width="7" height="14" fill="#08D9D6" rx="0" transform="matrix(-.98493 -.21338 .05275 -1.00388 2728.677 1643.684)"/><rect x="1115" y="744" width="5" height="12" fill="#252A34" rx="0" transform="matrix(.89923 .46954 -.43853 .88308 479.794 -456.532)"/><rect x="280" y="917" width="8" height="13" fill="#08D9D6" rx="0" transform="matrix(-.45514 .9604 -.89335 -.31205 1222.841 899.014)"/><rect x="1457" y="844" width="5" height="8" fill="#08D9D6" rx="0" transform="matrix(.25916 .9512 -.9671 .30906 1872.639 -827.84)"/><rect x="1065" y="202" width="5" height="9" fill="#08D9D6" rx="0" transform="matrix(-.17344 .99497 -.98376 -.12217 1458.097 -905.05)"/><rect x="1169" y="529" width="6" height="15" fill="#FF2E63" rx="0" transform="matrix(.77521 .75482 -.65093 .65616 690.947 -679.726)"/><rect x="731" y="458" width="7" height="10" fill="#FF2E63" rx="0" transform="matrix(-1.04148 -.15993 -.3229 -1.00975 1814.864 1204.107)"/><rect x="167" y="826" width="5" height="14" fill="#08D9D6" rx="0" transform="matrix(.75471 .90128 -.65606 .54154 588.074 284.202)"/><rect x="1059" y="152" width="7" height="17" fill="#EAEAEA" rx="0" transform="matrix(1.12909 .45384 .11153 .9305 -10.403 -186.35)"/><rect x="110" y="875" width="6" height="15" fill="#08D9D6" rx="0" transform="matrix(1.07138 .50122 -.13945 .86814 421.586 67.63)"/><rect x="113" y="263" width="8" height="20" fill="#252A34" rx="0" transform="matrix(-.70683 .36173 -.8225 -.99384 485.14 542.282)"/><rect x="582" y="175" width="7" height="8" fill="#08D9D6" rx="0" transform="matrix(-.99755 -.01748 .07033 -1.00122 1134.94 399.136)"/><rect x="1175" y="657" width="6" height="16" fill="#252A34" rx="0" transform="matrix(.10458 .99042 -.99498 .1392 1705.213 -614.84)"/><rect x="1276" y="503" width="8" height="14" fill="#252A34" rx="0" transform="matrix(.20963 .99313 -.97372 .1573 1567.734 -975.96)"/><rect x="196" y="704" width="5" height="14" fill="#08D9D6" rx="0" transform="matrix(-.78183 .82936 -.6583 -.58073 750.322 927.828)"/><rect x="1465" y="357" width="8" height="10" fill="#FF2E63" rx="0" transform="matrix(-.68244 .7671 -.73098 -.64367 2689.98 -454.868)"/><rect x="568" y="409" width="8" height="22" fill="#252A34" rx="0" transform="matrix(.91764 .4565 -.38965 .89591 193.999 -157.277)"/><rect x="953" y="795" width="7" height="7" fill="#08D9D6" rx="0" transform="matrix(.80774 .80463 -.63413 .60633 818.97 -337.846)"/><rect x="573" y="235" width="8" height="9" fill="#FF2E63" rx="0" transform="matrix(-.35905 .89934 -.9368 -.43864 1035.468 -194.516)"/><rect x="1184" y="233" width="8" height="16" fill="#252A34" rx="0" transform="matrix(1.00407 .1397 -.01366 .99405 27.596 -268.472)"/><rect x="1139" y="515" width="7" height="14" fill="#08D9D6" rx="0" transform="matrix(.7853 .84921 -.68685 .53065 748.897 -665.346)"/><rect x="497" y="656" width="6" height="10" fill="#EAEAEA" rx="0" transform="matrix(.90244 .47206 -.42113 .88781 289.752 -109.32)"/><rect x="1250" y="968" width="9" height="20" fill="#08D9D6" rx="0" transform="matrix(.23124 .99324 -1.05596 -.21112 2318.467 159.66)"/><rect x="916" y="89" width="7" height="10" fill="#FF2E63" rx="0" transform="matrix(1.03139 .42365 -.14862 .90852 21.655 -316.65)"/><rect x="1247" y="593" width="5" height="5" fill="#252A34" rx="0" transform="matrix(.94197 .486 -.35828 .87676 393.867 -621.23)"/><rect x="773" y="937" width="8" height="8" fill="#EAEAEA" rx="0" transform="matrix(.99545 .26136 -.11103 .97542 346.534 -289.148)"/><rect x="845" y="148" width="5" height="14" fill="#FF2E63" rx="0" transform="matrix(.27046 .99878 -1.0154 -.05234 827.583 -668.561)"/><rect x="496" y="190" width="5" height="6" fill="#252A34" rx="0" transform="matrix(-.98163 0 -.3159 -1.01872 1084.403 486.51)"/><rect x="113" y="610" width="7" height="11" fill="#EAEAEA" rx="0" transform="matrix(.17561 1.00122 -1.00185 -.01748 800.039 515.72)"/><rect x="291" y="338" width="5" height="13" fill="#EAEAEA" rx="0" transform="matrix(.59145 .86814 -.81042 .50122 456.224 -103.493)"/><rect x="910" y="880" width="7" height="20" fill="#EAEAEA" rx="0" transform="matrix(.52615 1.04426 -.93004 .05473 1466.775 166.647)"/><rect x="1272" y="446" width="7" height="9" fill="#EAEAEA" rx="0" transform="matrix(-.00174 .97797 -1.02206 -.26205 1806.742 -476.825)"/><rect x="482" y="832" width="5" height="5" fill="#EAEAEA" rx="0" transform="matrix(.3393 1.02293 -1.01924 -.1256 1373.723 564.502)"/><rect x="349" y="471" width="6" height="7" fill="#EAEAEA" rx="0" transform="matrix(.80917 .811 -.64516 .58922 528.211 -115.169)"/><rect x="802" y="125" width="5" height="6" fill="#08D9D6" rx="0" transform="matrix(-.10332 .89099 -1.06508 -.49388 1089.602 -369.205)"/><rect x="1039" y="727" width="6" height="7" fill="#FF2E63" rx="0" transform="matrix(.98622 .08764 -.13831 1.00168 147.94 -202.064)"/><rect x="1160" y="463" width="8" height="21" fill="#EAEAEA" rx="0" transform="matrix(.82712 .8158 -.57956 .63738 503.074 -466.008)"/><rect x="513" y="541" width="7" height="10" fill="#EAEAEA" rx="0" transform="matrix(.9493 .6019 -.40164 .79876 389.368 -210.022)"/><rect x="1187" y="328" width="8" height="13" fill="#252A34" rx="0" transform="matrix(.20791 .9636 -.97815 .27631 1270.568 -988.867)"/><rect x="1110" y="222" width="7" height="15" fill="#08D9D6" rx="0" transform="matrix(-.8228 .5922 -.55612 -.8151 2165.445 -379.57)"/><rect x="1131" y="331" width="7" height="7" fill="#08D9D6" rx="0" transform="matrix(-.88131 .21861 -.42808 -1.02849 2228.375 799.135)"/><rect x="1349" y="551" width="8" height="12" fill="#FF2E63" rx="0" transform="matrix(-.1781 .93073 -1.00248 -.37604 2235.264 -374.447)"/><rect x="198" y="441" width="8" height="14" fill="#FF2E63" rx="0" transform="matrix(.1398 .98846 -1.04653 -.24645 737.322 398.006)"/><rect x="1436" y="120" width="5" height="10" fill="#FF2E63" rx="0" transform="matrix(-.64085 .76897 -.7627 -.64524 2433.757 -774.656)"/><rect x="1056" y="480" width="9" height="16" fill="#252A34" rx="0" transform="matrix(-.12187 .9576 -.99255 -.40648 1674.105 -25.081)"/><rect x="692" y="600" width="6" height="17" fill="#252A34" rx="0" transform="matrix(.34555 .98223 -.95093 .19093 1111.174 -166.055)"/><rect x="1472" y="502" width="5" height="8" fill="#EAEAEA" rx="0" transform="matrix(.62859 .98354 -.88313 .20906 1209.276 -895.03)"/><rect x="999" y="873" width="8" height="12" fill="#08D9D6" rx="0" transform="matrix(.9438 .95298 -.64873 .40451 1021.803 -163.651)"/><rect x="162" y="929" width="6" height="10" fill="#FF2E63" rx="0" transform="matrix(.62932 .78813 -.77715 .61576 787.016 231.723)"/><rect x="344" y="622" width="8" height="15" fill="#EAEAEA" rx="0" transform="matrix(-1.0089 -.21629 -.12308 -1.01757 814.8 1445.115)"/><rect x="527" y="934" width="9" height="16" fill="#EAEAEA" rx="0" transform="matrix(.78882 .8708 -.69295 .50275 995.37 61.44)"/><rect x="162" y="62" width="9" height="14" fill="#FF2E63" rx="0" transform="matrix(-.90624 .39097 -.42278 -.92107 350.979 61.643)"/><rect x="913" y="801" width="6" height="14" fill="#FF2E63" rx="0" transform="matrix(.4894 .91562 -.85347 .44658 1036.248 -213.486)"/><rect x="1037" y="428" width="5" height="12" fill="#252A34" rx="0" transform="matrix(.90254 .61464 -.38473 .84598 215.71 -254.27)"/><rect x="1357" y="259" width="7" height="20" fill="#08D9D6" rx="0" transform="matrix(.37566 .95164 -.92876 .3092 1122.534 -1156.387)"/><rect x="290" y="618" width="5" height="7" fill="#08D9D6" rx="0" transform="matrix(.59512 1.0042 -.85842 .23184 749.533 256.613)"/><rect x="880" y="538" width="8" height="11" fill="#252A34" rx="0" transform="matrix(.63542 .8888 -.75825 .51315 695.218 -317.015)"/><rect x="938" y="643" width="7" height="14" fill="#FF2E63" rx="0" transform="matrix(-.61101 .56616 -.86041 -.83937 2245.894 811.668)"/><rect x="897" y="814" width="8" height="18" fill="#FF2E63" rx="0" transform="matrix(-.99452 0 -.15722 -1.0055 1974.555 1745.232)"/><rect x="1329" y="755" width="6" height="9" fill="#08D9D6" rx="0" transform="matrix(.48963 .94098 -.8845 .34249 1438.757 -684.202)"/><rect x="506" y="519" width="9" height="12" fill="#FF2E63" rx="0" transform="matrix(-.55468 .6491 -.87955 -.77357 1360.646 671.504)"/><rect x="1410" y="405" width="9" height="22" fill="#EAEAEA" rx="0" transform="matrix(-.99066 .08737 -.12241 -.99863 2900.046 608.935)"/><rect x="1014" y="303" width="5" height="8" fill="#08D9D6" rx="0" transform="matrix(1.06679 .6625 -.28222 .76213 173.648 -457.55)"/><rect x="158" y="781" width="6" height="8" fill="#EAEAEA" rx="0" transform="matrix(.0251 .93501 -1.08174 -.45604 1182.796 1038.618)"/><rect x="853" y="958" width="9" height="12" fill="#FF2E63" rx="0" transform="matrix(.81721 .53194 -.57209 .85129 739.277 -387.804)"/><rect x="852" y="404" width="6" height="12" fill="#252A34" rx="0" transform="matrix(.91689 .82936 -.56373 .58073 448.339 -401.784)"/><rect x="932" y="263" width="8" height="12" fill="#08D9D6" rx="0" transform="matrix(-.05214 .99405 -1.01331 .1397 1237.72 -780.901)"/><rect x="1099" y="537" width="9" height="11" fill="#FF2E63" rx="0" transform="matrix(-.97092 .01791 -.20609 -1.02615 2258.873 1334.183)"/><rect x="973" y="331" width="8" height="15" fill="#EAEAEA" rx="0" transform="matrix(-.74544 .60773 -.65623 -.80648 1970.197 -119.565)"/><rect x="481" y="545" width="6" height="15" fill="#EAEAEA" rx="0" transform="matrix(.87217 .70808 -.5401 .70808 511.433 -206.787)"/><rect x="916" y="491" width="7" height="12" fill="#FF2E63" rx="0" transform="matrix(-.69092 .66546 -.67931 -.79307 1761.337 525.64)"/><rect x="722" y="248" width="8" height="18" fill="#08D9D6" rx="0" transform="matrix(1.00176 -.03516 -.24663 1.0069 35.518 -65.387)"/><rect x="864" y="134" width="9" height="9" fill="#252A34" rx="0" transform="matrix(-.44483 .79912 -.91617 -.60218 1406.696 -502.464)"/><rect x="1090" y="794" width="9" height="21" fill="#252A34" rx="0" transform="matrix(-.5179 .79876 -.86168 -.6019 2426.62 433.599)"/><rect x="1025" y="726" width="5" height="11" fill="#252A34" rx="0" transform="matrix(-.41287 .66618 -1.02615 -.76635 2498.894 788.763)"/><rect x="768" y="503" width="6" height="10" fill="#EAEAEA" rx="0" transform="matrix(.64012 .95157 -.79227 .38446 727.912 -242.969)"/><rect x="112" y="636" width="8" height="9" fill="#FF2E63" rx="0" transform="matrix(.75013 .76616 -.67577 .64289 540.71 141.882)"/><rect x="1436" y="403" width="5" height="11" fill="#08D9D6" rx="0" transform="matrix(.42797 .99517 -.88213 .28536 1113.753 -754.179)"/><rect x="985" y="198" width="7" height="20" fill="#FF2E63" rx="0" transform="matrix(.95158 -.15838 .30573 1 0 0)"/><rect x="1196" y="519" width="5" height="5" fill="#252A34" rx="0" transform="matrix(.75048 .55928 -.67538 .82916 589.798 -602.124)"/><rect x="721" y="787" width="9" height="15" fill="#FF2E63" rx="0" transform="matrix(-1.0031 .0698 .01803 -.99817 1338.254 1562.244)"/><rect x="261" y="604" width="8" height="14" fill="#FF2E63" rx="0" transform="matrix(-.31156 .8151 -1.0005 -.5922 1095.653 789.372)"/><rect x="513" y="986" width="5" height="5" fill="#EAEAEA" rx="0" transform="matrix(.99 -.1409 .05266 1.00261 16.52 -11.591)"/><rect x="483" y="249" width="9" height="18" fill="#252A34" rx="0" transform="matrix(-.33475 .84818 -.96982 -.53 957.554 -10.237)"/><rect x="120" y="460" width="6" height="13" fill="#FF2E63" rx="0" transform="matrix(-.38095 .68982 -1.01142 -.79355 740.13 791.808)"/><rect x="511" y="99" width="5" height="7" fill="#252A34" rx="0" transform="matrix(-.9448 .08945 -.38051 -1.0224 1053.115 279.915)"/><rect x="1110" y="650" width="5" height="14" fill="#FF2E63" rx="0" transform="matrix(-.4264 .86785 -.89606 -.52146 2295.465 -142.09)"/><rect x="852" y="817" width="8" height="12" fill="#EAEAEA" rx="0" transform="matrix(.99452 .13926 -.10453 .99087 90.716 -81.8)"/><rect x="652" y="895" width="9" height="23" fill="#FF2E63" rx="0" transform="matrix(-.54905 .75715 -.80874 -.70606 1636.308 1225.378)"/><rect x="1481" y="311" width="7" height="14" fill="#EAEAEA" rx="0" transform="matrix(.93353 .6846 -.45961 .73415 340.034 -801.876)"/><rect x="1451" y="344" width="8" height="10" fill="#08D9D6" rx="0" transform="matrix(-.93563 .19127 -.41467 -.98402 3032.455 515.863)"/><rect x="788" y="866" width="5" height="12" fill="#252A34" rx="0" transform="matrix(.99517 .15703 -.08489 .99146 205.002 -185.848)"/><rect x="701" y="454" width="8" height="19" fill="#252A34" rx="0" transform="matrix(.87667 .70357 -.44769 .78139 258.153 -165.619)"/><rect x="456" y="39" width="6" height="16" fill="#252A34" rx="0" transform="matrix(.9828 .10478 -.1928 .99695 4.431 -15.856)"/><rect x="905" y="348" width="8" height="15" fill="#FF2E63" rx="0" transform="matrix(-.48613 .62024 -.96717 -.82308 1829.116 310.949)"/><rect x="898" y="383" width="9" height="16" fill="#EAEAEA" rx="0" transform="matrix(-.91563 .5339 -.4077 -.85442 1883.375 132.42)"/><rect x="562" y="744" width="7" height="8" fill="#FF2E63" rx="0" transform="matrix(.34287 .99127 -.94216 .19268 1090.782 122.783)"/><rect x="1243" y="908" width="8" height="11" fill="#EAEAEA" rx="0" transform="matrix(-.85797 .36934 -.47245 -.96216 2619.782 1642.78)"/><rect x="697" y="201" width="8" height="19" fill="#EAEAEA" rx="0" transform="matrix(.7567 1.04123 -.85405 .14634 484.32 -322.437)"/><rect x="616" y="506" width="7" height="9" fill="#FF2E63" rx="0" transform="matrix(-.9689 .15682 -.25953 -.9901 1371.558 962.118)"/><rect x="493" y="153" width="7" height="13" fill="#FF2E63" rx="0" transform="matrix(-.63062 .60932 -.80433 -.8086 962.92 64.582)"/><rect x="927" y="20" width="8" height="14" fill="#252A34" rx="0" transform="matrix(-.43984 .6617 -.9681 -.81714 1418.813 -264.486)"/><rect x="864" y="383" width="7" height="11" fill="#EAEAEA" rx="0" transform="matrix(.89518 .81977 -.52047 .64047 360.113 -322.72)"/><rect x="492" y="633" width="6" height="7" fill="#252A34" rx="0" transform="matrix(-.98766 -.07044 .07182 -1.00737 838.95 1382.126)"/><rect x="1476" y="784" width="6" height="16" fill="#FF2E63" rx="0" transform="matrix(.46652 .87454 -.87412 .50491 1542.706 -1109.19)"/><rect x="1073" y="895" width="9" height="10" fill="#08D9D6" rx="0" transform="matrix(1.02404 .7264 -.38774 .70149 664.695 -362.61)"/><rect x="848" y="833" width="7" height="18" fill="#252A34" rx="0" transform="matrix(-.87161 .21629 -.5228 -1.01757 2090.799 1758.783)"/><rect x="450" y="627" width="7" height="20" fill="#EAEAEA" rx="0" transform="matrix(-.9688 -.01816 -.42356 -1.04014 1284.147 1437.842)"/><rect x="325" y="887" width="8" height="20" fill="#FF2E63" rx="0" transform="matrix(.68058 .54764 -.77802 .84329 650.9 -74.184)"/><rect x="228" y="420" width="8" height="15" fill="#EAEAEA" rx="0" transform="matrix(.48068 .86189 -.87142 .51788 429.504 30.534)"/><rect x="588" y="802" width="6" height="14" fill="#252A34" rx="0" transform="matrix(.56055 .86655 -.83036 .5003 1014.34 -128.518)"/><rect x="1364" y="167" width="9" height="26" fill="#08D9D6" rx="0" transform="matrix(.69584 .64524 -.72053 .76897 544.88 -961.158)"/><rect x="1367" y="567" width="7" height="8" fill="#EAEAEA" rx="0" transform="matrix(.88295 .54672 -.46947 .84187 428.489 -539.086)"/><rect x="1443" y="858" width="5" height="13" fill="#08D9D6" rx="0" transform="matrix(-.12368 1.00122 -.99662 -.01748 2336.935 -491.9)"/><rect x="1410" y="33" width="7" height="18" fill="#FF2E63" rx="0" transform="matrix(-.09162 1.0189 -.9603 -.23523 1508.24 -956.172)"/><rect x="1305" y="564" width="7" height="10" fill="#252A34" rx="0" transform="matrix(.35564 .90475 -.92407 .461 1392.597 -1107.897)"/><rect x="812" y="831" width="9" height="18" fill="#08D9D6" rx="0" transform="matrix(.80647 .3956 -.62787 .93198 610.737 -395.192)"/><rect x="490" y="464" width="9" height="25" fill="#252A34" rx="0" transform="matrix(.59464 .70721 -.81936 .70721 505.334 -201.574)"/><rect x="92" y="985" width="9" height="21" fill="#FF2E63" rx="0" transform="matrix(.3177 1.00751 -.99255 0 1249.73 910.124)"/><rect x="1316" y="919" width="6" height="15" fill="#FF2E63" rx="0" transform="matrix(.56272 .97542 -.87442 .26136 1582.97 -416.856)"/><rect x="474" y="346" width="7" height="19" fill="#252A34" rx="0" transform="matrix(.5801 1.04314 -.91808 .07294 633.475 -22.547)"/><rect x="807" y="884" width="5" height="13" fill="#08D9D6" rx="0" transform="matrix(-.89895 .09218 -.57361 -1.0536 2233.185 2032.843)"/><rect x="1331" y="918" width="6" height="9" fill="#EAEAEA" rx="0" transform="matrix(.49858 .8336 -.86331 .56227 1492.616 -848.434)"/><rect x="181" y="697" width="6" height="11" fill="#EAEAEA" rx="0" transform="matrix(.11883 .94893 -1.09707 -.34538 1183.623 796.387)"/><rect x="684" y="383" width="9" height="13" fill="#FF2E63" rx="0" transform="matrix(.665 .94151 -.76604 .41919 558.427 -250.343)"/><rect x="57" y="150" width="6" height="14" fill="#FF2E63" rx="0" transform="matrix(-.48532 .67747 -.93708 -.7524 271.631 243.983)"/><rect x="921" y="216" width="5" height="11" fill="#FF2E63" rx="0" transform="matrix(.29254 .96725 -.95547 .25917 880.125 -777.562)"/><rect x="567" y="178" width="9" height="12" fill="#EAEAEA" rx="0" transform="matrix(-.2941 .97949 -.95843 -.2082 885.856 -307.52)"/><rect x="251" y="292" width="5" height="5" fill="#FF2E63" rx="0" transform="matrix(-.64553 .60325 -.7692 -.8303 649.834 444.625)"/><rect x="445" y="408" width="9" height="10" fill="#252A34" rx="0" transform="matrix(-.96713 .27669 -.24138 -.96493 1003.496 647.82)"/><rect x="545" y="160" width="6" height="13" fill="#252A34" rx="0" transform="matrix(-.3336 .84691 -.96411 -.55 916.935 -129.018)"/><rect x="499" y="632" width="7" height="16" fill="#EAEAEA" rx="0" transform="matrix(-.8219 .31992 -.59624 -.9846 1337.698 1244.034)"/><rect x="953" y="397" width="6" height="16" fill="#EAEAEA" rx="0" transform="matrix(1.0248 .19093 .0345 .98223 47.535 -141.942)"/><rect x="444" y="713" width="9" height="10" fill="#252A34" rx="0" transform="matrix(-.40596 .87253 -.91171 -.50375 1271.689 743.436)"/><rect x="203" y="236" width="6" height="7" fill="#EAEAEA" rx="0" transform="matrix(.53374 .90223 -.84804 .44005 342.206 -69.772)"/><rect x="320" y="772" width="5" height="14" fill="#08D9D6" rx="0" transform="matrix(.97268 .3473 -.20697 .95419 140.85 -19.45)"/><rect x="1355" y="791" width="8" height="14" fill="#252A34" rx="0" transform="matrix(-.91382 .6905 -.46827 -.74047 2903.011 235.262)"/><rect x="300" y="902" width="9" height="11" fill="#FF2E63" rx="0" transform="matrix(-.78896 .58242 -.5902 -.83179 945.264 1538.692)"/><rect x="155" y="696" width="8" height="17" fill="#EAEAEA" rx="0" transform="matrix(.96246 -.12278 .30573 1 0 0)"/><rect x="540" y="97" width="8" height="15" fill="#FF2E63" rx="0" transform="matrix(-.02008 1.01484 -.98362 -.08879 631.896 -332.552)"/><rect x="36" y="197" width="6" height="8" fill="#EAEAEA" rx="0" transform="matrix(.96547 .60852 -.31447 .83756 75.637 19.369)"/><rect x="1259" y="669" width="9" height="18" fill="#EAEAEA" rx="0" transform="matrix(-.16208 .95481 -.99152 -.32877 2293.53 -483.072)"/><rect x="896" y="669" width="8" height="19" fill="#252A34" rx="0" transform="matrix(-.1099 1.0189 -.95609 -.23523 1479.46 196.26)"/><rect x="1115" y="311" width="7" height="9" fill="#08D9D6" rx="0" transform="matrix(.71508 .5189 -.73703 .8636 526.174 -674.698)"/><rect x="401" y="728" width="5" height="6" fill="#EAEAEA" rx="0" transform="matrix(-.61758 .55 -.86722 -.84691 1483.028 1184.88)"/><rect x="1342" y="433" width="5" height="5" fill="#FF2E63" rx="0" transform="matrix(-.3383 .75374 -1.01125 -.70288 2389.55 63.417)"/><rect x="938" y="672" width="8" height="20" fill="#EAEAEA" rx="0" transform="matrix(-.38097 .85638 -.92965 -.53513 2102.923 107.855)"/><rect x="1458" y="183" width="5" height="10" fill="#FF2E63" rx="0" transform="matrix(.83688 .66923 -.5648 .74326 370.631 -903.654)"/><rect x="314" y="53" width="8" height="18" fill="#08D9D6" rx="0" transform="matrix(.07023 .98829 -1.02297 -.15653 373.3 -231.467)"/><rect x="1250" y="428" width="5" height="11" fill="#FF2E63" rx="0" transform="matrix(-.95562 .31134 -.27085 -.9582 2473.81 612.716)"/><rect x="765" y="625" width="5" height="8" fill="#252A34" rx="0" transform="matrix(-.2108 1.00046 -.99586 -.01746 1460.303 -154.668)"/><rect x="646" y="702" width="7" height="8" fill="#08D9D6" rx="0" transform="matrix(.63628 .76038 -.76203 .66099 663.796 -174.773)"/><rect x="386" y="45" width="6" height="17" fill="#08D9D6" rx="0" transform="matrix(.93454 .20947 -.37722 .9855 45.344 -128.472)"/><rect x="761" y="285" width="9" height="21" fill="#FF2E63" rx="0" transform="matrix(.37667 .87676 -.93178 .486 739.819 -572.796)"/><rect x="616" y="325" width="9" height="16" fill="#FF2E63" rx="0" transform="matrix(.83588 .6846 -.56432 .73415 316.837 -281.98)"/><rect x="612" y="554" width="7" height="8" fill="#08D9D6" rx="0" transform="matrix(-.76052 .74326 -.66066 -.66923 1372.312 484.7)"/><rect x="189" y="918" width="8" height="14" fill="#EAEAEA" rx="0" transform="matrix(.10453 1.01295 -.99452 -.07083 1092.759 829.051)"/><rect x="1468" y="645" width="9" height="12" fill="#252A34" rx="0" transform="matrix(.73834 .81714 -.62589 .6617 654.07 -504.565)"/><rect x="1468" y="973" width="6" height="16" fill="#EAEAEA" rx="0" transform="matrix(.76396 .64436 -.64148 .76792 900.72 -617.312)"/><rect x="1151" y="447" width="9" height="12" fill="#252A34" rx="0" transform="matrix(-.58875 .61765 -.83775 -.81964 2278.275 377.377)"/><rect x="1412" y="21" width="7" height="15" fill="#EAEAEA" rx="0" transform="matrix(.34604 .98616 -.95302 .17389 965.455 -1298.181)"/><rect x="539" y="458" width="8" height="18" fill="#08D9D6" rx="0" transform="matrix(1.06165 .92502 -.49258 .51274 421.736 -87.766)"/><rect x="649" y="632" width="6" height="8" fill="#252A34" rx="0" transform="matrix(-.6365 .4518 -.9084 -.9263 1873.723 1093.127)"/><rect x="1254" y="294" width="5" height="6" fill="#EAEAEA" rx="0" transform="matrix(-.78278 .59685 -.59805 -.8215 2432.347 -430.516)"/><rect x="362" y="429" width="8" height="10" fill="#08D9D6" rx="0" transform="matrix(.9889 .26024 -.15192 .97125 154.071 -121.239)"/><rect x="862" y="661" width="7" height="18" fill="#EAEAEA" rx="0" transform="matrix(1.02442 .24285 -.0091 .974 178.048 -268.486)"/><rect x="371" y="671" width="5" height="9" fill="#08D9D6" rx="0" transform="matrix(.13301 1.01484 -.97374 .08879 876.443 309.083)"/><rect x="30" y="929" width="6" height="16" fill="#252A34" rx="0" transform="matrix(.6876 .91368 -.78833 .4068 1053.235 525.102)"/><rect x="394" y="621" width="9" height="22" fill="#FF2E63" rx="0" transform="matrix(1.0246 .80456 -.41321 .65152 449.302 6.4)"/><rect x="1007" y="447" width="5" height="7" fill="#08D9D6" rx="0" transform="matrix(.8521 .7982 -.51211 .69386 366.088 -320.265)"/><rect x="1073" y="367" width="9" height="11" fill="#FF2E63" rx="0" transform="matrix(.99258 -.03492 .21256 1 0 0)"/><rect x="408" y="298" width="9" height="25" fill="#FF2E63" rx="0" transform="matrix(.48481 .85769 -.87462 .51535 484.085 -217.719)"/><rect x="677" y="474" width="9" height="26" fill="#EAEAEA" rx="0" transform="matrix(-.42147 .96823 -.90396 -.29602 1415.578 -136.625)"/><rect x="524" y="735" width="7" height="7" fill="#08D9D6" rx="0" transform="matrix(.01737 1.0043 -.99755 -.10556 1240.842 360.822)"/><rect x="290" y="975" width="5" height="6" fill="#252A34" rx="0" transform="matrix(.95249 .4565 -.32126 .89591 564.27 -62.471)"/><rect x="868" y="552" width="9" height="11" fill="#FF2E63" rx="0" transform="matrix(1.05644 .20804 .16336 .97874 62.135 -139.195)"/><rect x="680" y="846" width="7" height="13" fill="#252A34" rx="0" transform="matrix(.39031 .9148 -.91936 .4073 1228.992 -155.805)"/><rect x="1178" y="122" width="7" height="7" fill="#08D9D6" rx="0" transform="matrix(.9994 0 .1596 1.00061 -2.935 -41.335)"/><rect x="387" y="947" width="9" height="22" fill="#EAEAEA" rx="0" transform="matrix(.2082 .96593 -.97949 .25882 1198.136 331.891)"/><rect x="316" y="819" width="6" height="17" fill="#EAEAEA" rx="0" transform="matrix(.9927 .10453 -.12189 .99452 88.748 -28.811)"/><rect x="963" y="529" width="5" height="9" fill="#EAEAEA" rx="0" transform="matrix(.63927 .6111 -.78806 .81096 743.318 -659.405)"/></svg>